<?xml version="1.0" standalone="no"?>
<!DOCTYPE svg PUBLIC "-//W3C//DTD SVG 20010904//EN"
 "http://www.w3.org/TR/2001/REC-SVG-20010904/DTD/svg10.dtd">
<svg version="1.0" xmlns="http://www.w3.org/2000/svg"
 width="718.000000pt" height="718.000000pt" viewBox="0 0 718.000000 718.000000"
 preserveAspectRatio="xMidYMid meet">
<metadata>
Created by potrace 1.14, written by Peter Selinger 2001-2017
</metadata>
<g transform="translate(0.000000,718.000000) scale(0.100000,-0.100000)"
fill="#000000" stroke="none">
<path d="M1667 4012 c-15 -3 -17 -25 -19 -180 -2 -97 -2 -287 0 -422 l3 -245
652 2 c672 2 797 4 797 13 0 4 17 12 38 20 100 36 198 135 233 235 8 22 16 42
19 45 3 3 6 21 7 40 0 19 2 51 3 70 6 84 -38 210 -91 262 -10 10 -23 25 -31
35 -17 24 -83 67 -133 88 -22 10 -47 20 -55 24 -8 4 -44 8 -80 10 -93 4 -1323
7 -1343 3z m1376 -183 c9 0 17 -5 17 -11 0 -6 3 -9 6 -5 20 20 144 -79 129
-103 -4 -6 -2 -10 4 -10 16 0 33 -67 30 -122 -3 -57 -17 -100 -30 -92 -5 3 -6
-2 -3 -10 8 -20 -49 -82 -101 -108 -39 -21 -52 -21 -605 -20 -311 1 -572 2
-580 2 -8 1 -30 -1 -47 -3 -18 -2 -33 2 -34 7 -5 50 -2 139 4 143 4 2 4 9 0
16 -11 19 -9 299 3 311 7 8 191 10 600 8 324 -1 597 -2 607 -3z"/>
<path d="M3086 3747 c3 -10 9 -15 12 -12 3 3 0 11 -7 18 -10 9 -11 8 -5 -6z"/>
<path d="M246 3853 c-32 -87 -73 -203 -93 -258 -19 -55 -39 -109 -43 -120 -5
-11 -23 -60 -40 -110 -27 -78 -48 -135 -67 -183 -4 -10 18 -12 103 -10 l108 3
25 73 25 72 155 -2 156 -3 25 -72 24 -73 109 0 c100 0 109 1 102 18 -4 9 -56
154 -116 322 -61 168 -116 321 -124 340 -7 19 -23 63 -35 98 l-22 62 -118 0
-117 0 -57 -157z m185 -98 c2 -18 4 -25 12 -45 20 -48 76 -224 72 -228 -7 -7
-175 -8 -186 -1 -6 3 11 68 38 147 45 132 61 165 64 127z"/>
<path d="M910 3589 l0 -421 248 4 c269 5 285 8 349 65 104 93 83 272 -38 342
-46 26 -48 29 -27 34 66 17 118 109 111 196 -5 68 -26 106 -81 147 -59 45
-115 54 -352 54 l-210 0 0 -421z m397 243 c33 -18 46 -49 38 -89 -11 -59 -26
-67 -135 -71 l-98 -4 0 83 c1 46 5 87 10 90 16 10 162 3 185 -9z m13 -325 c39
-20 56 -58 45 -103 -14 -54 -47 -68 -160 -68 l-90 -1 -3 93 -3 92 93 0 c54 0
103 -6 118 -13z"/>
<path d="M3466 3718 c1 -240 5 -301 18 -336 49 -134 153 -204 310 -209 141 -4
248 44 313 141 52 77 56 105 58 414 l1 282 -103 0 -103 0 0 -272 c0 -313 -3
-327 -77 -364 -35 -18 -50 -20 -94 -13 -28 4 -60 16 -71 26 -46 41 -48 57 -48
348 l0 275 -103 0 -103 0 2 -292z"/>
<path d="M4235 3590 l-1 -420 246 0 245 0 0 78 0 77 -133 2 c-74 1 -136 4
-139 6 -3 3 -5 157 -4 341 l0 336 -107 0 -107 0 0 -420z"/>
<path d="M5239 3697 c-47 -15 -101 -62 -124 -107 -24 -46 -29 -195 -9 -267 28
-101 109 -152 242 -153 118 0 167 15 218 66 52 51 64 91 64 212 0 73 -4 101
-21 137 -25 54 -75 98 -128 114 -49 14 -195 13 -242 -2z"/>
<path d="M6019 3701 c-42 -13 -73 -32 -97 -60 -48 -53 -56 -80 -56 -201 0
-103 2 -119 24 -157 24 -43 72 -83 122 -102 45 -17 227 -8 271 13 42 21 84 66
104 113 16 39 17 201 2 258 -14 51 -81 116 -136 133 -44 13 -193 15 -234 3z"/>
<path d="M6777 3696 c-59 -22 -100 -59 -125 -116 -18 -40 -23 -196 -9 -249 14
-53 53 -105 100 -132 38 -22 54 -24 157 -24 126 0 163 11 212 62 46 47 58 92
58 205 0 78 -5 113 -19 143 -23 51 -79 101 -128 114 -53 15 -200 13 -246 -3z"/>
</g>
</svg>
